# xmcd CD database file
#
# Track frame offsets:
#	150
#	22042
#	37965
#	67212
#	90010
#	110020
#	123082
#	139362
#	159942
#	188582
#	210102
#	232295
#	251635
#	268002
#	283700
#	302557
#	319272
#
# Disc length: 4542 seconds
#
# Revision: 10
# Processed by: cddbd v1.5.2PL0 Copyright (c) Steve Scherf et al.
# Submitted via: CDex 2.22
#
DISCID=ec11bc11
DTITLE=Eagles - The Very Best Of The Eagles
DYEAR=2001
DGENRE=Rock
TTITLE0=One Of These Nights
TTITLE1=Take It Easy
TTITLE2=Hotel California
TTITLE3=New Kid In Town
TTITLE4=Heartache Tonight
TTITLE5=Tequila Sunrise
TTITLE6=Desperado
TTITLE7=Best Of My Love
TTITLE8=Lyin' Eyes
TTITLE9=Take It To The Limit
TTITLE10=I Can't Tell You Why
TTITLE11=Peaceful Easy Feeling
TTITLE12=James Dean
TTITLE13=Doolin-Dalton
TTITLE14=Witchy Woman
TTITLE15=The Long Run
TTITLE16=Life In The Fast Lane
EXTD=YEAR: 2001
EXTT0=
EXTT1=
EXTT2=
EXTT3=
EXTT4=
EXTT5=
EXTT6=
EXTT7=
EXTT8=
EXTT9=
EXTT10=
EXTT11=
EXTT12=
EXTT13=
EXTT14=
EXTT15=
EXTT16=
PLAYORDER=
